<svg width="782" height="236" viewBox="0 0 782 236" fill="none" xmlns="http://www.w3.org/2000/svg">
<path d="M62.776 82.128C56.64 82.128 51.7627 83.1507 48.144 85.196C44.5253 87.2413 41.772 89.9947 39.884 93.456C38.1533 96.76 36.9733 100.536 36.344 104.784C35.872 108.875 35.636 113.044 35.636 117.292C35.636 120.753 35.9507 124.529 36.58 128.62C37.2093 132.711 38.468 136.565 40.356 140.184C42.4013 143.645 45.1547 146.556 48.616 148.916C52.2347 151.276 56.9547 152.456 62.776 152.456C68.5973 152.456 73.2387 151.276 76.7 148.916C80.3187 146.556 83.072 143.645 84.96 140.184C86.848 136.565 88.1067 132.711 88.736 128.62C89.3653 124.529 89.68 120.753 89.68 117.292C89.68 113.831 89.3653 110.055 88.736 105.964C88.1067 101.873 86.848 98.0973 84.96 94.636C83.072 91.0173 80.3187 88.028 76.7 85.668C73.2387 83.308 68.5973 82.128 62.776 82.128ZM7.552 117.528C7.552 107.616 8.57467 98.8053 10.62 91.096C12.6653 83.2293 15.8907 76.6213 20.296 71.272C24.8587 65.7653 30.6013 61.596 37.524 58.764C44.4467 55.7747 52.864 54.28 62.776 54.28C73.16 54.5947 82.4427 56.9547 90.624 61.36C94.0853 63.248 97.468 65.6867 100.772 68.676C104.233 71.6653 107.223 75.4413 109.74 80.004C112.415 84.4093 114.539 89.68 116.112 95.816C117.843 101.952 118.708 109.111 118.708 117.292C118.708 125.473 117.921 132.632 116.348 138.768C114.932 144.904 112.965 150.175 110.448 154.58C108.088 158.985 105.335 162.683 102.188 165.672C99.1987 168.504 96.052 170.864 92.748 172.752C85.196 177 76.5427 179.203 66.788 179.36C61.9107 179.045 57.1907 178.023 52.628 176.292C48.6947 174.719 44.6827 172.201 40.592 168.74C36.5013 165.279 33.1187 160.244 30.444 153.636L35.636 160.48V216.648H7.552V117.528ZM243.847 177H215.763V160.48L220.955 153.636C218.28 160.244 214.898 165.279 210.807 168.74C206.716 172.201 202.704 174.719 198.771 176.292C194.208 178.023 189.488 179.045 184.611 179.36C174.856 179.203 166.203 177 158.651 172.752C155.347 170.864 152.122 168.504 148.975 165.672C145.986 162.683 143.232 158.985 140.715 154.58C138.355 150.175 136.388 144.904 134.815 138.768C133.399 132.632 132.691 125.473 132.691 117.292C132.691 109.111 133.478 101.952 135.051 95.816C136.624 89.68 138.67 84.4093 141.187 80.004C143.862 75.4413 146.851 71.6653 150.155 68.676C153.616 65.6867 157.078 63.248 160.539 61.36C168.72 56.9547 178.082 54.5947 188.623 54.28C198.535 54.28 206.952 55.7747 213.875 58.764C220.798 61.596 226.462 65.7653 230.867 71.272C235.43 76.6213 238.734 83.2293 240.779 91.096C242.824 98.8053 243.847 107.616 243.847 117.528V177ZM188.623 82.128C182.802 82.128 178.082 83.308 174.463 85.668C171.002 88.028 168.327 91.0173 166.439 94.636C164.551 98.0973 163.292 101.873 162.663 105.964C162.034 110.055 161.719 113.831 161.719 117.292C161.719 120.753 162.034 124.529 162.663 128.62C163.292 132.711 164.551 136.565 166.439 140.184C168.327 143.645 171.002 146.556 174.463 148.916C178.082 151.276 182.802 152.456 188.623 152.456C194.444 152.456 199.086 151.276 202.547 148.916C206.166 146.556 208.919 143.645 210.807 140.184C212.852 136.565 214.19 132.711 214.819 128.62C215.448 124.529 215.763 120.753 215.763 117.292C215.763 113.044 215.448 108.875 214.819 104.784C214.347 100.536 213.167 96.76 211.279 93.456C209.548 89.9947 206.874 87.2413 203.255 85.196C199.636 83.1507 194.759 82.128 188.623 82.128ZM313.987 82.128C307.851 82.128 302.974 83.1507 299.355 85.196C295.736 87.2413 292.983 89.9947 291.095 93.456C289.364 96.76 288.184 100.536 287.555 104.784C287.083 108.875 286.847 113.044 286.847 117.292C286.847 120.753 287.162 124.529 287.791 128.62C288.42 132.711 289.679 136.565 291.567 140.184C293.612 143.645 296.366 146.556 299.827 148.916C303.446 151.276 308.166 152.456 313.987 152.456C319.808 152.456 324.45 151.276 327.911 148.916C331.53 146.556 334.283 143.645 336.171 140.184C338.059 136.565 339.318 132.711 339.947 128.62C340.576 124.529 340.891 120.753 340.891 117.292C340.891 113.831 340.576 110.055 339.947 105.964C339.318 101.873 338.059 98.0973 336.171 94.636C334.283 91.0173 331.53 88.028 327.911 85.668C324.45 83.308 319.808 82.128 313.987 82.128ZM258.763 117.528C258.763 107.616 259.786 98.8053 261.831 91.096C263.876 83.2293 267.102 76.6213 271.507 71.272C276.07 65.7653 281.812 61.596 288.735 58.764C295.658 55.7747 304.075 54.28 313.987 54.28C324.371 54.5947 333.654 56.9547 341.835 61.36C345.296 63.248 348.679 65.6867 351.983 68.676C355.444 71.6653 358.434 75.4413 360.951 80.004C363.626 84.4093 365.75 89.68 367.323 95.816C369.054 101.952 369.919 109.111 369.919 117.292C369.919 125.473 369.132 132.632 367.559 138.768C366.143 144.904 364.176 150.175 361.659 154.58C359.299 158.985 356.546 162.683 353.399 165.672C350.41 168.504 347.263 170.864 343.959 172.752C336.407 177 327.754 179.203 317.999 179.36C313.122 179.045 308.402 178.023 303.839 176.292C299.906 174.719 295.894 172.201 291.803 168.74C287.712 165.279 284.33 160.244 281.655 153.636L286.847 160.48V216.648H258.763V117.528Z" fill="#FF965B"/>
<path d="M615.472 177H587.388V160.48L592.58 153.636C589.905 160.244 586.523 165.279 582.432 168.74C578.341 172.201 574.329 174.719 570.396 176.292C565.833 178.023 561.113 179.045 556.236 179.36C546.481 179.203 537.828 177 530.276 172.752C526.972 170.864 523.747 168.504 520.6 165.672C517.611 162.683 514.857 158.985 512.34 154.58C509.98 150.175 508.013 144.904 506.44 138.768C505.024 132.632 504.316 125.473 504.316 117.292C504.316 109.111 505.103 101.952 506.676 95.816C508.249 89.68 510.295 84.4093 512.812 80.004C515.487 75.4413 518.476 71.6653 521.78 68.676C525.241 65.6867 528.703 63.248 532.164 61.36C540.345 56.9547 549.707 54.5947 560.248 54.28C570.16 54.28 578.577 55.7747 585.5 58.764C592.423 61.596 598.087 65.7653 602.492 71.272C607.055 76.6213 610.359 83.2293 612.404 91.096C614.449 98.8053 615.472 107.616 615.472 117.528V177ZM560.248 82.128C554.427 82.128 549.707 83.308 546.088 85.668C542.627 88.028 539.952 91.0173 538.064 94.636C536.176 98.0973 534.917 101.873 534.288 105.964C533.659 110.055 533.344 113.831 533.344 117.292C533.344 120.753 533.659 124.529 534.288 128.62C534.917 132.711 536.176 136.565 538.064 140.184C539.952 143.645 542.627 146.556 546.088 148.916C549.707 151.276 554.427 152.456 560.248 152.456C566.069 152.456 570.711 151.276 574.172 148.916C577.791 146.556 580.544 143.645 582.432 140.184C584.477 136.565 585.815 132.711 586.444 128.62C587.073 124.529 587.388 120.753 587.388 117.292C587.388 113.044 587.073 108.875 586.444 104.784C585.972 100.536 584.792 96.76 582.904 93.456C581.173 89.9947 578.499 87.2413 574.88 85.196C571.261 83.1507 566.384 82.128 560.248 82.128ZM741.308 177H713.224V160.48L718.416 153.636C715.741 160.244 712.359 165.279 708.268 168.74C704.177 172.201 700.165 174.719 696.232 176.292C691.669 178.023 686.949 179.045 682.072 179.36C672.317 179.203 663.664 177 656.112 172.752C652.808 170.864 649.583 168.504 646.436 165.672C643.447 162.683 640.693 158.985 638.176 154.58C635.816 150.175 633.849 144.904 632.276 138.768C630.86 132.632 630.152 125.473 630.152 117.292C630.152 109.111 630.939 101.952 632.512 95.816C634.085 89.68 636.131 84.4093 638.648 80.004C641.323 75.4413 644.312 71.6653 647.616 68.676C651.077 65.6867 654.539 63.248 658 61.36C666.181 56.9547 675.543 54.5947 686.084 54.28C695.996 54.28 704.413 55.7747 711.336 58.764C718.259 61.596 723.923 65.7653 728.328 71.272C732.891 76.6213 736.195 83.2293 738.24 91.096C740.285 98.8053 741.308 107.616 741.308 117.528V177ZM686.084 82.128C680.263 82.128 675.543 83.308 671.924 85.668C668.463 88.028 665.788 91.0173 663.9 94.636C662.012 98.0973 660.753 101.873 660.124 105.964C659.495 110.055 659.18 113.831 659.18 117.292C659.18 120.753 659.495 124.529 660.124 128.62C660.753 132.711 662.012 136.565 663.9 140.184C665.788 143.645 668.463 146.556 671.924 148.916C675.543 151.276 680.263 152.456 686.084 152.456C691.905 152.456 696.547 151.276 700.008 148.916C703.627 146.556 706.38 143.645 708.268 140.184C710.313 136.565 711.651 132.711 712.28 128.62C712.909 124.529 713.224 120.753 713.224 117.292C713.224 113.044 712.909 108.875 712.28 104.784C711.808 100.536 710.628 96.76 708.74 93.456C707.009 89.9947 704.335 87.2413 700.716 85.196C697.097 83.1507 692.22 82.128 686.084 82.128Z" fill="#FF965B"/>
<path d="M522 153H615.289L615.5 179.5C615.5 179.5 579 180.5 556 179.5C533 178.5 522.496 166 522.496 166L522 153Z" fill="#FF965B"/>
<path d="M151 153H243.772L244 179.5C244 179.5 208 180.5 185 179.5C162 178.5 151.496 166 151.496 166L151 153Z" fill="#FF965B"/>
<path d="M648 153H741.124L741.5 179.5C741.5 179.5 705 180.5 682 179.5C659 178.5 648.496 166 648.496 166L648 153Z" fill="#FF965B"/>
<circle cx="763" cy="198" r="19" fill="#2DA093"/>
<path d="M486 129.5C486 135.738 484.771 141.914 482.384 147.677C479.997 153.44 476.498 158.677 472.088 163.088C467.677 167.498 462.44 170.997 456.677 173.384C450.914 175.771 444.738 177 438.5 177C432.262 177 426.085 175.771 420.323 173.384C414.56 170.997 409.323 167.498 404.912 163.088C400.502 158.677 397.003 153.44 394.616 147.677C392.229 141.914 391 135.738 391 129.5L420.439 129.5C420.439 131.872 420.906 134.221 421.813 136.412C422.721 138.603 424.051 140.594 425.729 142.271C427.406 143.949 429.397 145.279 431.588 146.187C433.779 147.094 436.128 147.561 438.5 147.561C440.872 147.561 443.221 147.094 445.412 146.187C447.603 145.279 449.594 143.949 451.271 142.271C452.949 140.594 454.279 138.603 455.187 136.412C456.094 134.221 456.561 131.872 456.561 129.5H486Z" fill="#2DA093"/>
<path d="M486 70.5C486 76.7378 484.771 82.9145 482.384 88.6775C479.997 94.4404 476.498 99.6768 472.088 104.088C467.677 108.498 462.44 111.997 456.677 114.384C450.914 116.771 444.738 118 438.5 118C432.262 118 426.085 116.771 420.323 114.384C414.56 111.997 409.323 108.498 404.912 104.088C400.502 99.6768 397.003 94.4404 394.616 88.6775C392.229 82.9145 391 76.7378 391 70.5L420.439 70.5C420.439 72.8719 420.906 75.2205 421.813 77.4118C422.721 79.6031 424.051 81.5942 425.729 83.2714C427.406 84.9485 429.397 86.2789 431.588 87.1866C433.779 88.0943 436.128 88.5615 438.5 88.5615C440.872 88.5615 443.221 88.0943 445.412 87.1866C447.603 86.2789 449.594 84.9485 451.271 83.2714C452.949 81.5942 454.279 79.6031 455.187 77.4118C456.094 75.2205 456.561 72.8719 456.561 70.5H486Z" fill="#2DA093"/>
</svg>
